<?xml version="1.0" encoding="UTF-8"?><svg id="Layer_2" xmlns="http://www.w3.org/2000/svg" viewBox="0 0 172.83 246.51"><defs><style>.cls-1{stroke-width:0px;}</style></defs><g id="Layer_1-2"><path class="cls-1" d="m162.53,57.59c3.38,2.1,5.94,5.18,7.69,9.12,1.74,4,2.61,8.61,2.61,13.83,0,4.77-.87,10.81-2.66,18.14-1.23,4.92-2.66,9.63-4.3,14.04-11.68,33.31-27.26,60-35.97,73.22-1.08,1.9-2.66,3.02-5.53,3.02h-25.98c-1.18,3.89-2.36,7.38-3.59,10.45-2.92,7.38-6.61,13.94-11.12,19.52l3.54,1.13c14.14,4.66,25.52,8.04,34.07,10.04,8.56,2,15.99,3.02,22.29,3.02,4.41,0,9.38-.51,14.91-1.54l-6.05,13.63c-2.72.46-5.12.72-7.17.72-4.15,0-9.68-.61-16.76-1.84-5.07-.92-10.09-2.1-15.12-3.43-5.02-1.38-11.48-3.33-19.47-5.84-6.46-2.05-12.86-4-19.27-5.74-5.79,5.53-12.66,9.84-20.55,12.86-7.89,3.02-15.73,4.56-23.62,4.56-9.17,0-16.55-1.64-22.14-4.97-5.59-3.33-8.35-7.74-8.35-13.17,0-5.84,3.13-10.35,9.43-13.63,6.25-3.28,14.76-4.92,25.47-4.92,12.2,0,25.82,2.2,40.94,6.61,2.82-4.87,5.07-9.99,6.81-15.32,1.08-3.33,2.2-7.33,3.38-12.14H20.7c-2.1,0-2.82-.46-2.82-1.84s.72-1.84,2.56-1.84c14.24,0,25.47-2.82,30.59-19.83L94.49,23.52c5.12-17.06-2.56-19.83-17.06-19.83-1.64,0-2.56-.46-2.56-1.84s.92-1.84,2.82-1.84h61.39c2.1,0,2.82.46,2.82,1.84s-.72,1.84-2.56,1.84c-14.24,0-25.47,2.82-30.59,19.83l-44.83,147.06c-3.28,10.97-2.31,13.99,7.48,13.99h15.73c.36-1.69.77-3.43,1.13-5.28l9.99-46.94c2.92-13.58,5.59-24.19,8.1-31.77,2.51-7.58,5.38-14.14,8.66-19.68,3.07-5.28,6.66-9.89,10.71-13.94,4.05-4.05,8.2-7.12,12.5-9.27,4.3-2.15,8.51-3.23,12.66-3.23,4.51,0,8.45,1.08,11.79,3.18M51.29,238.73c6.56-2.82,12.2-6.71,16.86-11.68l-3.38-.97c-16.81-5.07-29.62-7.58-38.53-7.58-14.14,0-21.21,3.69-21.21,11.12,0,3.74,2.46,6.92,7.33,9.48,4.87,2.56,11.02,3.84,18.4,3.84s13.99-1.38,20.55-4.2Zm111.96-154.18c.56-3.23.82-6.15.82-8.86,0-5.53-1.18-9.79-3.54-12.81-2.36-2.97-5.74-4.51-10.25-4.51-9.63,0-17.73,6.35-24.19,19.11-2.05,4.15-3.74,8.3-5.07,12.6-1.33,4.25-3.02,11.32-5.18,21.16l-12.5,58.62c-1.18,5.38-2.36,10.2-3.54,14.55,10.45-.87,17.99-5.07,27.87-16.86,25.06-35.25,34.33-77.01,35.56-83.06"/></g></svg>
