<svg width="412" height="49" viewBox="0 0 412 49" fill="none" xmlns="http://www.w3.org/2000/svg">
				<path d="M118.01 0.87H124.24V37.64H118.01V0.87ZM102.95 25.36C102.95 26.4 102.77 27.4 102.42 28.35C102.07 29.3 101.58 30.12 100.94 30.82C100.31 31.52 99.54 32.08 98.64 32.5C97.74 32.92 96.75 33.13 95.67 33.13C94.59 33.13 93.61 32.92 92.73 32.5C91.85 32.08 91.1 31.52 90.47 30.82C89.85 30.12 89.37 29.3 89.03 28.35C88.69 27.4 88.53 26.41 88.53 25.36V0.87H82.5V25.36C82.5 27.14 82.82 28.83 83.45 30.43C84.08 32.03 84.97 33.43 86.13 34.63C87.28 35.83 88.66 36.79 90.27 37.49C91.87 38.19 93.68 38.54 95.68 38.54C97.68 38.54 99.55 38.19 101.19 37.49C102.82 36.79 104.22 35.84 105.37 34.63C106.52 33.42 107.41 32.02 108.04 30.43C108.66 28.83 108.98 27.14 108.98 25.36V0.87H102.95V25.36ZM69.36 24.44C69.94 22.78 70.23 21.05 70.23 19.26C70.23 17.47 69.94 15.76 69.36 14.09C68.78 12.42 67.94 10.94 66.83 9.65C65.73 8.36 64.4 7.33 62.84 6.56C61.28 5.79 59.52 5.41 57.56 5.41C55.6 5.41 53.83 5.79 52.28 6.56C50.72 7.33 49.4 8.36 48.29 9.65C47.19 10.94 46.35 12.42 45.78 14.09C45.21 15.76 44.92 17.48 44.92 19.26C44.92 21.04 45.21 22.76 45.78 24.43C46.35 26.1 47.19 27.58 48.29 28.88C49.39 30.18 50.72 31.21 52.28 31.98C53.84 32.75 55.6 33.13 57.56 33.13C59.52 33.13 61.29 32.74 62.84 31.98C64.4 31.21 65.73 30.18 66.83 28.88C67.93 27.58 68.77 26.1 69.36 24.44ZM75.27 12.04C76.15 14.37 76.59 16.78 76.59 19.26C76.59 21.26 76.31 23.2 75.74 25.09C75.18 26.98 74.36 28.73 73.29 30.35C72.22 31.96 70.91 33.39 69.35 34.63C67.79 35.87 66.03 36.82 64.07 37.49L67.22 41.9L61.91 44.57L57.5 38.54C54.56 38.54 51.92 38 49.58 36.91C47.24 35.82 45.25 34.39 43.62 32.6C41.99 30.81 40.74 28.77 39.86 26.46C38.99 24.15 38.55 21.75 38.55 19.26C38.55 16.77 38.99 14.38 39.86 12.04C40.73 9.71 41.98 7.65 43.62 5.87C45.25 4.09 47.25 2.67 49.61 1.6C51.97 0.53 54.62 0 57.56 0C60.5 0 63.16 0.53 65.52 1.6C67.89 2.67 69.88 4.09 71.51 5.87C73.13 7.65 74.39 9.7 75.27 12.04ZM26.41 37.65H32.64V0.87H26.41V37.64V37.65ZM0 0.87V37.64H17.36V32.23H6.03V0.87H0ZM401.15 20.6C402 20.2 402.73 19.65 403.33 18.97C403.93 18.29 404.4 17.5 404.73 16.61C405.06 15.72 405.23 14.76 405.23 13.74C405.23 12.72 405.06 11.78 404.73 10.88C404.4 9.98 403.93 9.19 403.33 8.51C402.73 7.83 402 7.28 401.15 6.88C400.29 6.48 399.35 6.28 398.3 6.28H391.15V21.2H398.3C399.34 21.2 400.29 21 401.15 20.6ZM406.73 23.69C405.76 24.51 404.68 25.17 403.48 25.67L410.79 37.64H403.92L397.2 26.61H391.15V37.64H385.12V0.87H398.3C400.27 0.87 402.04 1.21 403.64 1.9C405.23 2.58 406.59 3.52 407.73 4.72C408.87 5.92 409.74 7.29 410.35 8.85C410.96 10.41 411.26 12.04 411.26 13.75C411.26 15.08 411.09 16.35 410.73 17.56C410.38 18.77 409.87 19.89 409.19 20.92C408.51 21.95 407.69 22.88 406.73 23.7M354.87 0.87V37.64H376.08V32.23H360.9V22.1H376.08V16.69H360.9V6.28H376.08V0.87H354.87ZM341.86 24.07C342.43 22.51 342.72 20.9 342.72 19.26C342.72 17.62 342.43 16.02 341.86 14.47C341.29 12.91 340.46 11.53 339.37 10.32C338.28 9.11 336.93 8.13 335.32 7.4C333.7 6.67 331.88 6.3 329.84 6.3H323.97V32.25H329.84C331.87 32.25 333.7 31.88 335.32 31.15C336.93 30.42 338.29 29.45 339.37 28.24C340.46 27.04 341.28 25.65 341.86 24.09M347.69 12.51C348.53 14.72 348.95 16.97 348.95 19.28C348.95 21.59 348.53 23.84 347.69 26.05C346.85 28.25 345.62 30.22 343.98 31.94C342.35 33.66 340.35 35.04 337.99 36.09C335.63 37.14 332.92 37.67 329.86 37.67H317.95V0.87H329.86C332.9 0.87 335.61 1.4 337.98 2.45C340.35 3.5 342.35 4.89 343.99 6.6C345.62 8.32 346.86 10.28 347.7 12.48M299.28 20.6C300.13 20.2 300.86 19.65 301.46 18.97C302.06 18.29 302.53 17.5 302.86 16.61C303.19 15.72 303.36 14.76 303.36 13.74C303.36 12.72 303.19 11.78 302.86 10.88C302.53 9.98 302.06 9.19 301.46 8.51C300.86 7.83 300.14 7.28 299.28 6.88C298.42 6.48 297.48 6.28 296.43 6.28H289.28V21.2H296.43C297.47 21.2 298.42 21 299.28 20.6ZM304.86 23.69C303.89 24.51 302.81 25.17 301.61 25.67L308.92 37.64H302.05L295.33 26.61H289.28V37.64H283.25V0.87H296.43C298.4 0.87 300.17 1.21 301.76 1.9C303.35 2.58 304.71 3.52 305.85 4.72C306.99 5.92 307.86 7.29 308.47 8.85C309.08 10.41 309.38 12.04 309.38 13.75C309.38 15.08 309.21 16.35 308.85 17.56C308.5 18.77 307.99 19.89 307.31 20.92C306.63 21.95 305.81 22.88 304.85 23.7M256.17 27.57H266.3L261.28 10.93L256.18 27.57H256.17ZM263.38 0.87L276.07 37.64H269.71L268.15 32.97H254.33L252.77 37.64H246.41L259.12 0.87H263.38ZM221.87 0.87V37.64H239.23V32.23H227.89V0.87H221.86H221.87ZM204.86 12.04C205.52 12.45 206.02 13.05 206.36 13.82C206.7 14.6 206.87 15.5 206.87 16.52C206.87 17.45 206.7 18.63 206.35 20.06C206.11 21.02 205.83 21.94 205.51 22.8C203.23 29.3 200.19 34.51 198.49 37.09C198.28 37.46 197.97 37.68 197.41 37.68H192.34C192.11 38.44 191.88 39.12 191.64 39.72C191.07 41.16 190.35 42.44 189.47 43.53L190.16 43.75C192.92 44.66 195.14 45.32 196.81 45.71C198.48 46.1 199.93 46.3 201.16 46.3C202.02 46.3 202.99 46.2 204.07 46L202.89 48.66C202.36 48.75 201.89 48.8 201.49 48.8C200.68 48.8 199.6 48.68 198.22 48.44C197.23 48.26 196.25 48.03 195.27 47.77C194.29 47.5 193.03 47.12 191.47 46.63C190.21 46.23 188.96 45.85 187.71 45.51C186.58 46.59 185.24 47.43 183.7 48.02C182.16 48.61 180.63 48.91 179.09 48.91C177.3 48.91 175.86 48.59 174.77 47.94C173.68 47.29 173.14 46.43 173.14 45.37C173.14 44.23 173.75 43.35 174.98 42.71C176.2 42.07 177.86 41.75 179.95 41.75C182.33 41.75 184.99 42.18 187.94 43.04C188.49 42.09 188.93 41.09 189.27 40.05C189.48 39.4 189.7 38.62 189.93 37.68H177.18C176.77 37.68 176.63 37.59 176.63 37.32C176.63 37.05 176.77 36.96 177.13 36.96C179.91 36.96 182.1 36.41 183.1 33.09L191.58 5.39C192.58 2.06 191.08 1.52 188.25 1.52C187.93 1.52 187.75 1.43 187.75 1.16C187.75 0.89 187.93 0.8 188.3 0.8H200.28C200.69 0.8 200.83 0.89 200.83 1.16C200.83 1.43 200.69 1.52 200.33 1.52C197.55 1.52 195.36 2.07 194.36 5.39L185.61 34.09C184.97 36.23 185.16 36.82 187.07 36.82H190.14C190.21 36.49 190.29 36.15 190.36 35.79L192.31 26.63C192.88 23.98 193.4 21.91 193.89 20.43C194.38 18.95 194.94 17.67 195.58 16.59C196.18 15.56 196.88 14.66 197.67 13.87C198.46 13.08 199.27 12.48 200.11 12.06C200.95 11.64 201.77 11.43 202.58 11.43C203.46 11.43 204.23 11.64 204.88 12.05M183.15 47.39C184.43 46.84 185.53 46.08 186.44 45.11L185.78 44.92C182.5 43.93 180 43.44 178.26 43.44C175.5 43.44 174.12 44.16 174.12 45.61C174.12 46.34 174.6 46.96 175.55 47.46C176.5 47.96 177.7 48.21 179.14 48.21C180.58 48.21 181.87 47.94 183.15 47.39ZM205 17.3C205.11 16.67 205.16 16.1 205.16 15.57C205.16 14.49 204.93 13.66 204.47 13.07C204.01 12.49 203.35 12.19 202.47 12.19C200.59 12.19 199.01 13.43 197.75 15.92C197.35 16.73 197.02 17.54 196.76 18.38C196.5 19.21 196.17 20.59 195.75 22.51L193.31 33.95C193.08 35 192.85 35.94 192.62 36.79C194.66 36.62 196.13 35.8 198.06 33.5C202.95 26.62 204.76 18.47 205 17.29M157.22 24.06C157.79 22.5 158.08 20.89 158.08 19.25C158.08 17.61 157.79 16.01 157.22 14.46C156.65 12.9 155.82 11.52 154.73 10.31C153.64 9.1 152.29 8.12 150.68 7.39C149.06 6.66 147.24 6.29 145.2 6.29H139.33V32.24H145.2C147.23 32.24 149.06 31.87 150.68 31.14C152.3 30.41 153.65 29.44 154.73 28.23C155.82 27.03 156.65 25.64 157.22 24.08M163.05 12.5C163.89 14.71 164.31 16.96 164.31 19.27C164.31 21.58 163.89 23.83 163.05 26.04C162.21 28.24 160.98 30.21 159.34 31.93C157.71 33.65 155.71 35.03 153.35 36.08C150.99 37.13 148.28 37.66 145.21 37.66H133.3V0.87H145.21C148.26 0.87 150.96 1.4 153.33 2.45C155.7 3.5 157.7 4.89 159.34 6.6C160.98 8.32 162.21 10.28 163.05 12.48" fill="#D4C9BA"></path>
			</svg>
